<svg width="24" height="24" viewBox="0 0 24 24" fill="none" xmlns="http://www.w3.org/2000/svg">
<path d="M5.33284 11.0635L16.0131 0.383412C16.2602 0.136194 16.5899 0 16.9415 0C17.2931 0 17.6229 0.136194 17.8699 0.383412L18.6564 1.16975C19.1682 1.68213 19.1682 2.51491 18.6564 3.02651L9.68793 11.995L18.6664 20.9735C18.9134 21.2207 19.0498 21.5503 19.0498 21.9017C19.0498 22.2535 18.9134 22.583 18.6664 22.8305L17.8799 23.6166C17.6326 23.8638 17.3031 24 16.9515 24C16.5999 24 16.2701 23.8638 16.0231 23.6166L5.33284 12.9267C5.08523 12.6787 4.94924 12.3476 4.95002 11.9956C4.94924 11.6422 5.08523 11.3113 5.33284 11.0635Z" fill="white"/>
</svg>
